<svg width="192" height="192" viewBox="0 0 192 192" fill="none" xmlns="http://www.w3.org/2000/svg">
  <path fill-rule="evenodd" clip-rule="evenodd" d="M71.4455 96L30.0229 24.2541C29.9577 24.1412 30.0393 24 30.1697 24L161.626 24C161.757 24 161.838 24.1412 161.773 24.2541L120.35 96L161.773 167.746C161.838 167.859 161.757 168 161.626 168H30.1697C30.0393 168 29.9577 167.859 30.0229 167.746L71.4455 96ZM95.7512 138.099C95.8164 138.212 95.9794 138.212 96.0446 138.099L115.46 104.471L147.101 159.275C147.167 159.388 147.085 159.529 146.955 159.529H44.8412C44.7107 159.529 44.6292 159.388 44.6944 159.275L76.336 104.471L95.7512 138.099ZM76.336 87.5294L44.6944 32.7247C44.6292 32.6118 44.7107 32.4706 44.8412 32.4706L146.955 32.4706C147.085 32.4706 147.167 32.6118 147.101 32.7247L115.46 87.5294L96.0446 53.9012C95.9794 53.7883 95.8164 53.7883 95.7512 53.9012L76.336 87.5294ZM81.2265 96L95.7512 70.8424C95.8164 70.7294 95.9794 70.7294 96.0446 70.8424L110.569 96L96.0446 121.158C95.9794 121.271 95.8164 121.271 95.7512 121.158L81.2265 96Z" fill="black"/>
  <style>
    @media (prefers-color-scheme: dark) {
      path { fill: white; }
    }
  </style>
</svg>
