<svg width="48" height="48" viewBox="0 0 48 48" fill="none" xmlns="http://www.w3.org/2000/svg">
<title>LinkedIn</title>
<path d="M44.4 0H3.6C2.64522 0 1.72955 0.379285 1.05442 1.05442C0.379285 1.72955 0 2.64522 0 3.6V44.4C0 45.3548 0.379285 46.2705 1.05442 46.9456C1.72955 47.6207 2.64522 48 3.6 48H44.4C45.3548 48 46.2705 47.6207 46.9456 46.9456C47.6207 46.2705 48 45.3548 48 44.4V3.6C48 2.64522 47.6207 1.72955 46.9456 1.05442C46.2705 0.379285 45.3548 0 44.4 0ZM14.4 40.8H7.2V19.2H14.4V40.8ZM10.8 15C9.97484 14.9764 9.17492 14.7102 8.5002 14.2346C7.82548 13.759 7.30588 13.0951 7.00631 12.3259C6.70674 11.5566 6.6405 10.7162 6.81586 9.90953C6.99121 9.10287 7.40039 8.36577 7.99227 7.79034C8.58415 7.2149 9.33248 6.82664 10.1438 6.67407C10.955 6.5215 11.7933 6.61139 12.5538 6.9325C13.3142 7.25361 13.9632 7.79171 14.4197 8.47956C14.8761 9.16741 15.1197 9.9745 15.12 10.8C15.101 11.9288 14.636 13.0043 13.8265 13.7913C13.017 14.5783 11.9289 15.0128 10.8 15ZM40.8 40.8H33.6V29.424C33.6 26.016 32.16 24.792 30.288 24.792C29.7391 24.8285 29.2029 24.9732 28.7101 25.2175C28.2173 25.4619 27.7776 25.8013 27.4164 26.2161C27.0551 26.6309 26.7793 27.1129 26.6049 27.6346C26.4305 28.1563 26.3609 28.7073 26.4 29.256C26.3881 29.3677 26.3881 29.4803 26.4 29.592V40.8H19.2V19.2H26.16V22.32C26.8621 21.252 27.8266 20.3822 28.9613 19.7938C30.0959 19.2055 31.3626 18.9184 32.64 18.96C36.36 18.96 40.704 21.024 40.704 27.744L40.8 40.8Z" fill="currentColor"/>
</svg>
