<svg width="48" height="48" viewBox="0 0 48 48" fill="none" xmlns="http://www.w3.org/2000/svg">
  <title>GitHub</title>
  <path d="M24 0C37.26 0 48 10.74 48 24C47.9987 29.0286 46.4205 33.9302 43.4875 38.0149C40.5545 42.0995 36.4144 45.1616 31.65 46.77C30.45 47.01 30 46.26 30 45.63C30 44.82 30.03 42.24 30.03 39.03C30.03 36.78 29.28 35.34 28.41 34.59C33.75 33.99 39.36 31.95 39.36 22.74C39.36 20.1 38.43 17.97 36.9 16.29C37.14 15.69 37.98 13.23 36.66 9.93C36.66 9.93 34.65 9.27 30.06 12.39C28.14 11.85 26.1 11.58 24.06 11.58C22.02 11.58 19.98 11.85 18.06 12.39C13.47 9.3 11.46 9.93 11.46 9.93C10.14 13.23 10.98 15.69 11.22 16.29C9.69 17.97 8.76 20.13 8.76 22.74C8.76 31.92 14.34 33.99 19.68 34.59C18.99 35.19 18.36 36.24 18.15 37.8C16.77 38.43 13.32 39.45 11.16 35.82C10.71 35.1 9.36 33.33 7.47 33.36C5.46 33.39 6.66 34.5 7.5 34.95C8.52 35.52 9.69 37.65 9.96 38.34C10.44 39.69 12 42.27 18.03 41.16C18.03 43.17 18.06 45.06 18.06 45.63C18.06 46.26 17.61 46.98 16.41 46.77C11.6299 45.1789 7.4722 42.123 4.52667 38.0359C1.58114 33.9488 -0.00264144 29.0379 3.30694e-06 24C3.30694e-06 10.74 10.74 0 24 0Z" fill="currentColor"/>
</svg>