<svg width="48" height="48" viewBox="0 0 48 48" fill="none" xmlns="http://www.w3.org/2000/svg">
  <title>Behance</title>
  <path d="M0 9V38.6167H14.308C15.6338 38.6167 24.7639 38.3477 24.7639 30.0118C24.7639 24.8026 21.1807 23.0329 19.3609 22.5076C20.6991 21.876 23.3631 20.3751 23.3631 16.3541C23.3631 14.1154 23.0442 9 13.9078 9H0ZM32.6183 11.7515V14.4531H43.6746V11.7515H32.6183ZM6.50366 14.0528H12.6071C13.1824 14.0528 17.0596 13.7464 17.0596 17.4548C17.0596 20.6253 14.258 20.9567 13.1074 20.9567H6.50366V14.0528ZM38.4216 16.9044C30.0606 16.9044 28.3159 24.1648 28.3159 27.3103C28.3159 36.6468 35.9702 37.7161 38.4216 37.7161C45.0316 37.7161 46.9076 33.4387 47.6768 31.0624H42.8741C42.6865 31.6752 41.2857 33.6639 38.6217 33.6639C34.1567 33.6639 33.769 30.1744 33.769 28.611H47.977C48.2646 23.208 45.9008 16.9044 38.4216 16.9044ZM38.2715 20.9567C39.6035 20.9567 40.6791 21.3444 41.3232 22.0573C41.9673 22.7765 42.4426 23.8271 42.5739 25.2091H33.769C33.794 24.8276 33.8815 24.3899 34.0191 23.9084C34.1567 23.4144 34.3693 22.9453 34.7195 22.5076C35.0697 22.0761 35.5575 21.7009 36.1203 21.407C36.6956 21.1068 37.4085 20.9567 38.2715 20.9567ZM6.50366 25.4092H13.5576C14.9584 25.4092 18.2603 25.6281 18.2603 29.6616C18.2603 33.5701 14.1017 33.5638 13.4576 33.5638H6.50366V25.4092Z" fill="currentColor"/>
</svg>
