<svg width="48" height="48" viewBox="0 0 48 48" fill="none" xmlns="http://www.w3.org/2000/svg">
  <title>Twitter</title>
  <path d="M45 11.0417C43.4555 11.7261 41.7963 12.1885 40.052 12.3975C41.8314 11.3321 43.1965 9.64142 43.8402 7.62891C42.1755 8.61667 40.3313 9.33436 38.3687 9.71911C36.7964 8.04695 34.5583 7 32.0796 7C27.3221 7 23.4636 10.8585 23.4636 15.6197C23.4636 16.2931 23.5413 16.9479 23.6855 17.5805C16.5215 17.2198 10.1751 13.7885 5.92443 8.57597C5.18453 9.85229 4.75909 11.3321 4.75909 12.908C4.75909 15.8972 6.28142 18.5368 8.59174 20.0813C7.17854 20.0351 5.85044 19.6485 4.6888 19.0029V19.1139C4.6888 23.2887 7.65762 26.7718 11.6013 27.5635C10.8762 27.7595 10.1159 27.8631 9.33163 27.8631C8.77671 27.8631 8.23474 27.8113 7.70942 27.7114C8.80631 31.1334 11.9878 33.6269 15.7594 33.6935C12.8091 36.0056 9.09302 37.3837 5.0569 37.3837C4.3614 37.3837 3.67515 37.343 3 37.2635C6.81415 39.7107 11.3423 41.1349 16.2071 41.1349C32.0593 41.1349 40.7253 28.0056 40.7253 16.6186C40.7253 16.2487 40.716 15.875 40.6994 15.5051C42.3826 14.2879 43.8439 12.773 44.9963 11.0472L45 11.0417Z" fill="currentColor"/>
</svg>
