<svg width="48" height="48" viewBox="0 0 48 48" fill="none" xmlns="http://www.w3.org/2000/svg">
<title>Medium</title>
<path d="M27.0748 23.63C27.0748 31.1578 21.0139 37.2605 13.5372 37.2605C6.06045 37.2605 0 31.1596 0 23.63C0 16.1004 6.06091 10 13.5372 10C21.0134 10 27.0748 16.1023 27.0748 23.63ZM41.9258 23.63C41.9258 30.7165 38.8951 36.4607 35.1569 36.4607C31.4188 36.4607 28.3881 30.7147 28.3881 23.63C28.3881 16.5454 31.4188 10.7994 35.1569 10.7994C38.8951 10.7994 41.9258 16.5454 41.9258 23.63ZM48 23.63C48 29.9792 46.934 35.1258 45.6193 35.1258C44.3046 35.1258 43.2386 29.9773 43.2386 23.63C43.2386 17.2827 44.3046 12.1343 45.6198 12.1343C46.9349 12.1343 48 17.2814 48 23.63Z" fill="currentColor"/>
</svg>
