<svg width="48" height="48" viewBox="0 0 48 48" fill="none" xmlns="http://www.w3.org/2000/svg">
  <title>LinkedIn</title>
  <path d="M41.85 3H6.15C5.31457 3 4.51335 3.33187 3.92261 3.92261C3.33187 4.51335 3 5.31457 3 6.15V41.85C3 42.6854 3.33187 43.4866 3.92261 44.0774C4.51335 44.6681 5.31457 45 6.15 45H41.85C42.6854 45 43.4866 44.6681 44.0774 44.0774C44.6681 43.4866 45 42.6854 45 41.85V6.15C45 5.31457 44.6681 4.51335 44.0774 3.92261C43.4866 3.33187 42.6854 3 41.85 3ZM15.6 38.7H9.3V19.8H15.6V38.7ZM12.45 16.125C11.728 16.1044 11.0281 15.8714 10.4377 15.4553C9.8473 15.0391 9.39264 14.4582 9.13052 13.7851C8.8684 13.1121 8.81044 12.3767 8.96387 11.6708C9.11731 10.965 9.47534 10.3201 9.99324 9.81654C10.5111 9.31304 11.1659 8.97331 11.8758 8.83981C12.5857 8.70631 13.3191 8.78497 13.9845 9.06594C14.65 9.34691 15.2178 9.81775 15.6172 10.4196C16.0166 11.0215 16.2297 11.7277 16.23 12.45C16.2134 13.4377 15.8065 14.3787 15.0982 15.0674C14.3899 15.756 13.4378 16.1362 12.45 16.125ZM38.7 38.7H32.4V28.746C32.4 25.764 31.14 24.693 29.502 24.693C29.0218 24.725 28.5526 24.8515 28.1213 25.0653C27.6901 25.2792 27.3054 25.5761 26.9893 25.9391C26.6732 26.302 26.4319 26.7238 26.2793 27.1803C26.1267 27.6368 26.0657 28.1189 26.1 28.599C26.0896 28.6967 26.0896 28.7953 26.1 28.893V38.7H19.8V19.8H25.89V22.53C26.5043 21.5955 27.3483 20.8344 28.3411 20.3196C29.3339 19.8048 30.4423 19.5536 31.56 19.59C34.815 19.59 38.616 21.396 38.616 27.276L38.7 38.7Z" fill="currentColor"/>
</svg>
