<svg width="275" height="48" viewBox="0 0 275 48" fill="none" xmlns="http://www.w3.org/2000/svg">
  <title>Reffan Liefde | Designer + Developer</title>
  <path d="M0.00851712 25.9163V0H11.4701C12.6625 0 13.7576 0.243346 14.7553 0.730038C15.7773 1.21673 16.6534 1.87376 17.3834 2.70114C18.1378 3.52852 18.7097 4.45323 19.099 5.47528C19.5127 6.49734 19.7195 7.54373 19.7195 8.61445C19.7195 9.70951 19.5249 10.7681 19.1355 11.7901C18.7705 12.7878 18.2351 13.6639 17.5294 14.4183C16.8237 15.1726 15.9963 15.7567 15.0473 16.1703L20.9606 25.9163H15.4123L10.083 17.2289H5.04578V25.9163H0.00851712ZM5.04578 12.8122H11.3606C11.9933 12.8122 12.553 12.6297 13.0397 12.2646C13.5264 11.8753 13.9157 11.3643 14.2078 10.7316C14.4998 10.0989 14.6458 9.39316 14.6458 8.61445C14.6458 7.78707 14.4754 7.0692 14.1348 6.46084C13.7941 5.82814 13.356 5.32928 12.8207 4.96426C12.3097 4.59924 11.75 4.41673 11.1416 4.41673H5.04578V12.8122ZM43.009 21.4996V25.9163H25.0135V0H42.6805V4.41673H30.0508V10.6586H40.9649V14.7468H30.0508V21.4996H43.009ZM47.6666 25.9163V0H65.078V4.41673H52.7039V11.0966H62.9974V15.1848H52.7039V25.9163H47.6666ZM69.3567 25.9163V0H86.7681V4.41673H74.3939V11.0966H84.6875V15.1848H74.3939V25.9163H69.3567ZM96.2379 0H101.348L110.875 25.9163H105.692L103.283 19.4555H94.2303L91.8576 25.9163H86.6744L96.2379 0ZM102.37 15.9148L98.793 5.21977L95.0698 15.9148H102.37ZM119.485 9.27148V25.9163H114.447V0H118.463L131.859 17.0829V0.0365019H136.896V25.9163H132.698L119.485 9.27148ZM152.516 25.9163V0H157.554V21.4996H170.767V25.9163H152.516ZM174.563 25.9163V0H179.6V25.9163H174.563ZM203.733 21.4996V25.9163H185.737V0H203.404V4.41673H190.775V10.6586H201.689V14.7468H190.775V21.4996H203.733ZM208.39 25.9163V0H225.801V4.41673H213.427V11.0966H223.721V15.1848H213.427V25.9163H208.39ZM230.081 25.9163V0H239.498C242.321 0 244.681 0.58403 246.579 1.75209C248.478 2.89582 249.901 4.45323 250.85 6.42433C251.799 8.3711 252.274 10.5369 252.274 12.9217C252.274 15.5498 251.751 17.8373 250.704 19.784C249.658 21.7308 248.173 23.2395 246.251 24.3103C244.353 25.381 242.102 25.9163 239.498 25.9163H230.081ZM247.2 12.9217C247.2 11.2426 246.896 9.77034 246.287 8.50494C245.679 7.21521 244.803 6.21749 243.659 5.51179C242.516 4.78175 241.129 4.41673 239.498 4.41673H235.118V21.4996H239.498C241.153 21.4996 242.552 21.1346 243.696 20.4046C244.84 19.6502 245.703 18.6281 246.287 17.3384C246.896 16.0243 247.2 14.5521 247.2 12.9217ZM274.935 21.4996V25.9163H256.939V0H274.606V4.41673H261.977V10.6586H272.891V14.7468H261.977V21.4996H274.935ZM3.88745 35.7719C5.77338 35.7719 7.25171 36.2951 8.32243 37.3414C9.40532 38.3757 9.94677 39.8601 9.94677 41.7947C9.94677 43.7293 9.40532 45.2198 8.32243 46.2662C7.25171 47.3004 5.77338 47.8175 3.88745 47.8175H0V35.7719H3.88745ZM4.03346 46.4487C5.40836 46.4487 6.47909 46.0411 7.24563 45.2259C8.02433 44.3985 8.41369 43.2547 8.41369 41.7947C8.41369 40.3346 8.02433 39.197 7.24563 38.3817C6.47909 37.5544 5.40836 37.1407 4.03346 37.1407H1.46008V46.4487H4.03346ZM13.5185 47.8175V35.7719H21.9687V37.1407H14.9786V41.0281H20.4173V42.397H14.9786V46.4487H22.2424V47.8175H13.5185ZM29.3913 35.5894C30.4499 35.5894 31.3624 35.8084 32.129 36.2464C32.8955 36.6722 33.5343 37.3049 34.0453 38.1445L32.8225 39.0935C32.3723 38.3148 31.8613 37.7673 31.2894 37.4509C30.7297 37.1224 30.0484 36.9582 29.2453 36.9582C28.6005 36.9582 28.0651 37.0494 27.6392 37.2319C27.2255 37.4144 26.9214 37.6578 26.7267 37.962C26.532 38.254 26.4347 38.5886 26.4347 38.9658C26.4347 39.3916 26.5685 39.7688 26.8362 40.0973C27.1039 40.4137 27.6392 40.6631 28.4423 40.8456L31.0522 41.4297C32.2081 41.6852 33.0111 42.0745 33.4613 42.5977C33.9236 43.1087 34.1548 43.7475 34.1548 44.5141C34.1548 45.1954 33.9602 45.8038 33.5708 46.3392C33.1936 46.8624 32.6582 47.27 31.9647 47.562C31.2712 47.854 30.456 48 29.5191 48C28.643 48 27.8704 47.8844 27.2012 47.6532C26.5442 47.4099 25.9784 47.0874 25.5039 46.6859C25.0294 46.2844 24.64 45.8342 24.3358 45.3354L25.6134 44.2951C25.8446 44.7574 26.1427 45.165 26.5077 45.5179C26.8727 45.8707 27.3107 46.1445 27.8217 46.3392C28.3449 46.5338 28.9411 46.6312 29.6103 46.6312C30.2309 46.6312 30.7662 46.5582 31.2164 46.4122C31.6788 46.254 32.0316 46.0289 32.275 45.7369C32.5183 45.4327 32.64 45.0677 32.64 44.6418C32.64 44.2525 32.5122 43.9057 32.2567 43.6015C32.0012 43.2852 31.5206 43.0479 30.8149 42.8897L27.986 42.2509C27.2438 42.0806 26.6415 41.8494 26.1792 41.5574C25.729 41.2532 25.4005 40.9004 25.1936 40.4989C24.9989 40.0852 24.9016 39.6411 24.9016 39.1665C24.9016 38.5217 25.078 37.9316 25.4309 37.3962C25.7959 36.8487 26.313 36.4106 26.9822 36.0821C27.6636 35.7536 28.4666 35.5894 29.3913 35.5894ZM39.0394 35.7719V47.8175H37.5793V35.7719H39.0394ZM48.1995 48C47.0558 48 46.0642 47.7506 45.2246 47.2517C44.3973 46.7407 43.7524 46.0228 43.29 45.0981C42.8398 44.1734 42.6148 43.0722 42.6148 41.7947C42.6148 40.5171 42.852 39.416 43.3265 38.4913C43.8132 37.5665 44.4885 36.8548 45.3524 36.3559C46.2163 35.8449 47.2079 35.5894 48.3273 35.5894C49.5197 35.5894 50.487 35.8144 51.2292 36.2646C51.9836 36.7148 52.5919 37.4084 53.0543 38.3452L51.722 39.0753C51.4543 38.3817 51.0284 37.8586 50.4444 37.5057C49.8725 37.1407 49.1668 36.9582 48.3273 36.9582C47.5121 36.9582 46.7881 37.1528 46.1554 37.5422C45.5349 37.9194 45.0421 38.473 44.6771 39.203C44.3243 39.9209 44.1478 40.7848 44.1478 41.7947C44.1478 42.8046 44.2999 43.6745 44.6041 44.4046C44.9205 45.1224 45.3828 45.676 45.9912 46.0654C46.6117 46.4426 47.3661 46.6312 48.2543 46.6312C48.7532 46.6312 49.2155 46.5703 49.6414 46.4487C50.0794 46.3148 50.4566 46.1202 50.7729 45.8646C51.1014 45.6091 51.357 45.2867 51.5395 44.8973C51.722 44.508 51.8132 44.0517 51.8132 43.5285V43.1087H47.9805V41.7399H53.1456V47.8175H51.9957L51.9227 45.5726L52.233 45.6274C51.9167 46.3817 51.4178 46.9658 50.7364 47.3795C50.0551 47.7932 49.2094 48 48.1995 48ZM66.3708 35.7719V47.8175H64.564L59.5267 39.7506L58.2491 37.4875H58.2309L58.3039 39.3125V47.8175H56.9168V35.7719H58.7236L63.7427 43.8023L65.0385 46.1201H65.0567L64.9837 44.2768V35.7719H66.3708ZM70.6847 47.8175V35.7719H79.1349V37.1407H72.1448V41.0281H77.5836V42.397H72.1448V46.4487H79.4087V47.8175H70.6847ZM87.2511 35.7719C88.48 35.7719 89.4655 36.0882 90.2077 36.7209C90.95 37.3536 91.3211 38.2114 91.3211 39.2943C91.3211 40.3772 90.9439 41.2228 90.1895 41.8312C89.4473 42.4274 88.4617 42.7255 87.2328 42.7255L87.1051 42.8167H84.1484V47.8175H82.6884V35.7719H87.2511ZM87.2328 41.4479C88.0967 41.4479 88.7355 41.2715 89.1492 40.9186C89.5751 40.5536 89.788 40.0122 89.788 39.2943C89.788 38.5764 89.5751 38.0411 89.1492 37.6882C88.7355 37.3232 88.0967 37.1407 87.2328 37.1407H84.1484V41.4479H87.2328ZM88.0724 41.7399L92.0511 47.8175H90.3173L86.8496 42.543L88.0724 41.7399ZM106.011 37.524V46.5764H104.642V37.524H106.011ZM109.752 41.3567V42.7255H100.882V41.3567H109.752ZM123.629 35.7719C125.515 35.7719 126.993 36.2951 128.064 37.3414C129.147 38.3757 129.688 39.8601 129.688 41.7947C129.688 43.7293 129.147 45.2198 128.064 46.2662C126.993 47.3004 125.515 47.8175 123.629 47.8175H119.741V35.7719H123.629ZM123.775 46.4487C125.15 46.4487 126.221 46.0411 126.987 45.2259C127.766 44.3985 128.155 43.2547 128.155 41.7947C128.155 40.3346 127.766 39.197 126.987 38.3817C126.221 37.5544 125.15 37.1407 123.775 37.1407H121.202V46.4487H123.775ZM133.26 47.8175V35.7719H141.71V37.1407H134.72V41.0281H140.159V42.397H134.72V46.4487H141.984V47.8175H133.26ZM154.608 35.7719L150.045 47.8175H148.384L143.803 35.7719H145.373L148.439 44.0943L149.206 46.4852L149.972 44.1125L153.038 35.7719H154.608ZM157.463 47.8175V35.7719H165.913V37.1407H158.923V41.0281H164.362V42.397H158.923V46.4487H166.187V47.8175H157.463ZM170.927 46.4487H177.826V47.8175H169.467V35.7719H170.927V46.4487ZM185.166 35.5894C186.31 35.5894 187.296 35.8449 188.123 36.3559C188.962 36.8548 189.607 37.5665 190.057 38.4913C190.52 39.416 190.751 40.5171 190.751 41.7947C190.751 43.0722 190.52 44.1734 190.057 45.0981C189.607 46.0228 188.962 46.7407 188.123 47.2517C187.296 47.7506 186.31 48 185.166 48C184.023 48 183.031 47.7506 182.191 47.2517C181.364 46.7407 180.719 46.0228 180.257 45.0981C179.807 44.1734 179.581 43.0722 179.581 41.7947C179.581 40.5171 179.807 39.416 180.257 38.4913C180.719 37.5665 181.364 36.8548 182.191 36.3559C183.031 35.8449 184.023 35.5894 185.166 35.5894ZM185.166 36.9582C184.339 36.9582 183.621 37.1528 183.013 37.5422C182.404 37.9194 181.936 38.473 181.607 39.203C181.279 39.9209 181.115 40.7848 181.115 41.7947C181.115 42.8046 181.279 43.6745 181.607 44.4046C181.936 45.1224 182.404 45.676 183.013 46.0654C183.621 46.4426 184.339 46.6312 185.166 46.6312C186.006 46.6312 186.724 46.4426 187.32 46.0654C187.928 45.676 188.397 45.1224 188.725 44.4046C189.054 43.6745 189.218 42.8046 189.218 41.7947C189.218 40.7848 189.054 39.9209 188.725 39.203C188.397 38.473 187.928 37.9194 187.32 37.5422C186.724 37.1528 186.006 36.9582 185.166 36.9582ZM198.582 35.7719C199.397 35.7719 200.103 35.924 200.699 36.2281C201.307 36.5202 201.782 36.9399 202.123 37.4875C202.463 38.035 202.634 38.6859 202.634 39.4403C202.634 40.1947 202.463 40.8456 202.123 41.3932C201.782 41.9407 201.307 42.3665 200.699 42.6707C200.103 42.9627 199.397 43.1087 198.582 43.1087H195.79V47.8175H194.329V35.7719H198.582ZM198.363 41.7399C199.312 41.7399 200.005 41.5452 200.443 41.1559C200.882 40.7544 201.101 40.1825 201.101 39.4403C201.101 38.6859 200.882 38.1141 200.443 37.7247C200.005 37.3354 199.312 37.1407 198.363 37.1407H195.79V41.7399H198.363ZM205.834 47.8175V35.7719H214.284V37.1407H207.294V41.0281H212.732V42.397H207.294V46.4487H214.558V47.8175H205.834ZM222.4 35.7719C223.629 35.7719 224.614 36.0882 225.357 36.7209C226.099 37.3536 226.47 38.2114 226.47 39.2943C226.47 40.3772 226.093 41.2228 225.338 41.8312C224.596 42.4274 223.611 42.7255 222.382 42.7255L222.254 42.8167H219.297V47.8175H217.837V35.7719H222.4ZM222.382 41.4479C223.246 41.4479 223.884 41.2715 224.298 40.9186C224.724 40.5536 224.937 40.0122 224.937 39.2943C224.937 38.5764 224.724 38.0411 224.298 37.6882C223.884 37.3232 223.246 37.1407 222.382 37.1407H219.297V41.4479H222.382ZM223.221 41.7399L227.2 47.8175H225.466L221.998 42.543L223.221 41.7399Z" fill="currentColor"/>
</svg>
