<svg width="36" height="36" viewBox="0 0 36 36" fill="none" xmlns="http://www.w3.org/2000/svg">
  <path d="M12.4263 17.3137L17.4539 12.2874L17.4939 12.2474L17.4951 12.2486C17.8801 11.9049 18.4701 11.9174 18.8401 12.2874C19.2089 12.6561 19.2226 13.2474 18.8789 13.6324L18.8801 13.6337L18.8401 13.6737L15.3701 17.1425H22.3515V17.1437C22.8665 17.1725 23.2765 17.6 23.2765 18.1225C23.2765 18.645 22.8677 19.0725 22.3515 19.1013V19.1025H15.3601L18.8314 22.5751L18.8714 22.6151L18.8701 22.6163C19.2139 23.0013 19.2014 23.5926 18.8314 23.9626C18.4614 24.3326 17.8701 24.3451 17.4851 24.0014L17.4839 24.0026L17.4439 23.9626L12.38 18.8975C12.1488 18.7175 12 18.4375 12 18.1225C12 17.7862 12.1688 17.49 12.4263 17.3137Z" fill="#1F1F1F"/>
</svg>
