<svg width="36" height="36" viewBox="0 0 36 36" fill="none" xmlns="http://www.w3.org/2000/svg">
  <path d="M22.8502 17.3137L17.7826 12.2474L17.7814 12.2486C17.3964 11.9049 16.8063 11.9174 16.4363 12.2874C16.0676 12.6561 16.0538 13.2474 16.3976 13.6324L16.3963 13.6337L19.9064 17.1425H12.925V17.1437C12.41 17.1725 12 17.6 12 18.1225C12 18.645 12.4088 19.0725 12.925 19.1013V19.1025H19.9164L16.4051 22.6151L16.4063 22.6163C16.0626 23.0013 16.0751 23.5926 16.4451 23.9626C16.8151 24.3326 17.4064 24.3451 17.7914 24.0014L17.7926 24.0026L22.8965 18.8975C23.1277 18.7175 23.2765 18.4375 23.2765 18.1225C23.2765 17.7862 23.1077 17.49 22.8502 17.3137Z" fill="#1F1F1F"/>
</svg>
