<svg width="240" height="120" viewBox="0 0 240 120" fill="none" xmlns="http://www.w3.org/2000/svg">
<title>AIOZ</title>
<path fill-rule="evenodd" clip-rule="evenodd" d="M67.6145 60.0078C67.6145 75.8068 54.8068 88.6145 39.0078 88.6145C23.2087 88.6145 10.401 75.8068 10.401 60.0078C10.401 44.2087 23.2087 31.401 39.0078 31.401C54.8068 31.401 67.6145 44.2087 67.6145 60.0078ZM72.0155 60.0078C72.0155 78.2374 57.2374 93.0155 39.0078 93.0155C20.7781 93.0155 6 78.2374 6 60.0078C6 41.7781 20.7781 27 39.0078 27C57.2374 27 72.0155 41.7781 72.0155 60.0078ZM46.0898 44.8665C45.7337 45.0373 45.4197 45.2847 45.1703 45.591L23.6072 71.3664C23.2449 71.7941 23.0479 72.3376 23.0519 72.8981C23.0579 73.5188 23.3072 74.1124 23.7461 74.5514C24.185 74.9903 24.7786 75.2395 25.3993 75.2455C25.7479 75.24 26.0914 75.1611 26.4075 75.014C26.7235 74.8669 27.005 74.6548 27.2336 74.3916L44.7261 53.4833V72.7181C44.6991 73.0614 44.7435 73.4066 44.8563 73.7319C44.9692 74.0572 45.1481 74.3557 45.3819 74.6085C45.6157 74.8614 45.8992 75.0631 46.2147 75.2011C46.5302 75.3391 46.8708 75.4103 47.2151 75.4103C47.5595 75.4103 47.9001 75.3391 48.2156 75.2011C48.5311 75.0631 48.8146 74.8614 49.0484 74.6085C49.2822 74.3557 49.4611 74.0572 49.5739 73.7319C49.6868 73.4066 49.7312 73.0614 49.7042 72.7181V47.1189C49.7083 46.791 49.6473 46.4654 49.525 46.1611C49.4026 45.8568 49.2212 45.5797 48.9913 45.3458C48.7613 45.112 48.4873 44.9259 48.1851 44.7984C47.8829 44.671 47.5584 44.6046 47.2305 44.6031C46.8355 44.6058 46.446 44.6957 46.0898 44.8665Z" fill="white"/>
<path fill-rule="evenodd" clip-rule="evenodd" d="M118.586 38.3578C119.497 37.2662 120.591 36.9023 121.685 36.9023C123.691 36.9023 125.514 38.7216 125.332 40.7229V79.2926C125.332 81.2938 123.691 83.1132 121.685 83.1132C119.497 83.1132 117.856 81.2938 117.856 79.2926V50.3653L91.418 81.6577C90.6886 82.5674 89.5946 82.9312 88.683 82.9312C86.8596 82.9312 85.2186 81.4758 85.2186 79.4745C85.2186 78.7468 85.401 78.0191 86.1303 77.2913L118.586 38.3578ZM133.72 40.7229C133.72 38.5397 135.543 36.9023 137.549 36.9023C139.554 36.9023 141.195 38.7216 141.378 40.7229V79.2926C141.378 81.2939 139.554 83.1132 137.549 83.1132C135.543 83.1132 133.72 81.2939 133.72 79.2926V40.7229ZM171.101 36.9023C158.155 36.9023 148.127 47.0905 148.127 60.0077C148.127 72.925 158.337 83.1132 171.101 83.1132C184.046 83.1132 194.257 72.925 194.257 60.0077C194.257 47.0905 184.046 36.9023 171.101 36.9023ZM171.101 75.8359C162.531 75.8359 155.785 68.9224 155.785 60.0077C155.785 51.0931 162.531 44.1796 171.101 44.1796C179.67 44.1796 186.417 51.0931 186.417 60.0077C186.417 68.7405 179.67 75.8359 171.101 75.8359ZM201.362 37.6244H230.536C232.177 37.6244 234 38.8979 234 41.0811C234 41.9908 233.453 42.7185 232.906 43.4462L206.103 75.4664H230.171C232.177 75.4664 233.635 76.9218 233.635 78.9231C233.635 80.9243 232.177 82.3798 230.171 82.3798H198.445C196.439 82.3798 194.981 80.9243 194.981 78.9231C194.981 77.8315 195.345 77.1037 195.892 76.376L222.695 44.5378H201.362C199.539 44.5378 197.898 43.0824 197.898 41.0811C197.898 39.0798 199.539 37.6244 201.362 37.6244Z" fill="white"/>
</svg>
