<svg width="240" height="120" viewBox="0 0 240 120" fill="none" xmlns="http://www.w3.org/2000/svg">
<title>Brightfish</title>
<path d="M234 40.8948C234 41.8326 233.722 42.7494 233.201 43.5291C232.679 44.3089 231.938 44.9167 231.071 45.2755C230.204 45.6344 229.25 45.7283 228.329 45.5454C227.409 45.3624 226.564 44.9108 225.9 44.2477C225.237 43.5845 224.785 42.7397 224.602 41.8199C224.418 40.9001 224.513 39.9467 224.872 39.0803C225.231 38.2138 225.839 37.4733 226.619 36.9523C227.4 36.4313 228.317 36.1532 229.256 36.1532C230.514 36.1532 231.72 36.6528 232.61 37.542C233.5 38.4313 234 39.6372 234 40.8948ZM219.272 28.3171C218.438 28.3171 217.622 28.5643 216.929 29.0274C216.235 29.4905 215.695 30.1488 215.376 30.9189C215.056 31.6891 214.972 32.5365 215.135 33.3541C215.298 34.1717 215.7 34.9227 216.29 35.5122C216.879 36.1016 217.631 36.503 218.449 36.6656C219.267 36.8283 220.115 36.7448 220.886 36.4258C221.656 36.1068 222.315 35.5666 222.779 34.8734C223.242 34.1803 223.489 33.3655 223.489 32.5318C223.489 31.9783 223.38 31.4303 223.168 30.9189C222.956 30.4075 222.645 29.9429 222.254 29.5515C221.862 29.1601 221.397 28.8496 220.886 28.6378C220.374 28.426 219.825 28.317 219.272 28.3171ZM229.121 22C228.495 22 227.884 22.1854 227.364 22.5328C226.843 22.8801 226.438 23.3738 226.198 23.9515C225.959 24.5291 225.896 25.1647 226.018 25.7779C226.141 26.3911 226.441 26.9544 226.884 27.3964C227.327 27.8385 227.89 28.1395 228.504 28.2615C229.117 28.3835 229.754 28.3208 230.331 28.0815C230.909 27.8422 231.403 27.437 231.751 26.9171C232.099 26.3972 232.284 25.786 232.284 25.1608C232.284 24.7457 232.202 24.3347 232.043 23.9512C231.884 23.5677 231.651 23.2192 231.357 22.9257C231.064 22.6322 230.715 22.3994 230.331 22.2406C229.948 22.0817 229.536 22 229.121 22Z" fill="white"/>
<path d="M6 75.9098V45.6364H10.763C13.5253 45.6364 15.546 45.8148 16.8245 46.1715C18.6389 46.6519 20.0823 47.5437 21.1546 48.847C22.2269 50.1506 22.7627 51.6872 22.7633 53.4569C22.7779 54.5468 22.5266 55.6239 22.0317 56.5954C21.5443 57.5353 20.7514 58.4168 19.6534 59.2399C21.4929 60.1043 22.8381 61.1847 23.6895 62.4812C24.5409 63.7778 24.9663 65.311 24.9663 67.0809C24.9827 68.7257 24.5245 70.3404 23.6468 71.732C22.8287 73.0751 21.6501 74.1623 20.2453 74.8705C18.8575 75.5635 16.9402 75.9099 14.4935 75.9098H6ZM11.7664 51.1313V57.5112H13.0274C14.4328 57.5112 15.4764 57.2162 16.1589 56.6262C16.8409 56.0364 17.1822 55.2338 17.1822 54.2183C17.1822 53.2717 16.8584 52.5205 16.2104 51.9648C15.5629 51.4092 14.5777 51.1313 13.2547 51.1313H11.7664ZM11.7664 62.6562V70.4149H13.2115C15.6067 70.4149 17.2207 70.113 18.054 69.5094C18.8867 68.9058 19.3033 68.0278 19.3033 66.8751C19.3033 65.5719 18.8148 64.5429 17.8372 63.7881C16.8596 63.0337 15.2351 62.6564 12.9637 62.6562H11.7664ZM29.1269 45.6364H35.2363C38.5823 45.6364 40.9647 45.9349 42.384 46.5317C43.8034 47.1285 44.9453 48.1198 45.8089 49.5055C46.6732 50.8914 47.105 52.531 47.105 54.4241C47.105 56.4137 46.6282 58.0773 45.674 59.4149C44.7197 60.7526 43.2822 61.7644 41.3603 62.4504L48.5361 75.9098H42.2327L35.4209 63.0884H34.8932V75.9098H29.1269V45.6364ZM34.8932 57.47H36.7001C38.5338 57.47 39.7965 57.2291 40.4878 56.7475C41.1785 56.2657 41.5245 55.4673 41.5245 54.3522C41.5379 53.7379 41.3585 53.1349 41.0108 52.6282C40.6731 52.1429 40.1921 51.7749 39.6358 51.5752C39.0608 51.3615 38.0073 51.2547 36.4739 51.2548H34.8932V57.47ZM53.1262 45.6364H58.8511V75.9098H53.1262V45.6364ZM92.0317 50.5757L87.9711 54.5888C85.4017 51.8722 82.4063 50.514 78.9849 50.514C76.0024 50.514 73.5054 51.5018 71.4923 53.4775C69.4793 55.4532 68.473 57.8542 68.473 60.6805C68.473 63.6029 69.5172 66.0793 71.6063 68.1099C73.6953 70.1407 76.2723 71.1559 79.3373 71.1558C81.3299 71.1558 83.0099 70.7373 84.3779 69.9004C85.7452 69.0636 86.8479 67.7534 87.6865 65.9696H78.9136V60.557H94.1529L94.1938 61.833C94.1938 64.4826 93.4827 67.0836 92.1346 69.3653C90.7613 71.7391 88.9837 73.5501 86.8012 74.7984C84.618 76.0468 82.0574 76.671 79.1199 76.6712C75.9755 76.6712 73.1712 75.9886 70.707 74.6235C68.2428 73.2586 66.2934 71.3137 64.8588 68.7891C63.4341 66.3025 62.6914 63.484 62.7066 60.6187C62.7066 56.6127 64.0313 53.1278 66.6814 50.1641C69.8252 46.6382 73.9162 44.8751 78.9551 44.875C81.4929 44.8556 84.0086 45.3528 86.3477 46.3362C88.2837 47.1594 90.1781 48.5726 92.0317 50.5757ZM98.2603 45.6364H104.109V57.0584H114.22V45.6364H120.048V75.9098H114.22V62.6356H104.109V75.9098H98.2603V45.6364ZM124.868 45.6364H141.61V51.3166H136.091V75.9098H130.242V51.3166H124.868V45.6364ZM146.676 45.6364H161.854V48.6H149.703V58.0874H161.854V61.0509H149.703V75.9098H146.676V45.6364ZM167.789 45.6364H170.816V75.9098H167.789V45.6364ZM175.427 70.2708L178.001 68.7273C179.814 72.0613 181.908 73.7283 184.283 73.7283C185.281 73.7326 186.265 73.4886 187.145 73.0183C187.991 72.5887 188.698 71.9287 189.184 71.1146C189.642 70.3496 189.884 69.4748 189.884 68.5833C189.884 67.5681 189.541 66.5735 188.855 65.5992C187.907 64.2547 186.177 62.6358 183.665 60.7423C181.139 58.8354 179.567 57.4565 178.949 56.6056C177.878 55.179 177.343 53.6354 177.343 51.9751C177.329 50.7113 177.656 49.4671 178.29 48.3736C178.923 47.2882 179.847 46.4008 180.957 45.8114C182.103 45.1872 183.389 44.865 184.695 44.875C186.1 44.8692 187.482 45.2348 188.7 45.9349C189.942 46.6416 191.257 47.9416 192.644 49.8348L190.172 51.7076C189.033 50.1985 188.062 49.2038 187.259 48.7234C186.466 48.2464 185.558 47.9971 184.633 48.0032C183.411 48.0032 182.412 48.3736 181.637 49.1145C181.26 49.4631 180.962 49.8871 180.762 50.3588C180.562 50.8305 180.463 51.3392 180.473 51.8517C180.473 52.5116 180.614 53.1639 180.885 53.7656C181.159 54.383 181.66 55.0553 182.388 55.7825C182.786 56.1668 184.09 57.1752 186.301 58.8077C188.923 60.7423 190.722 62.4641 191.696 63.9733C192.671 65.4827 193.158 66.9987 193.158 68.5215C193.158 70.7169 192.324 72.624 190.656 74.2428C188.988 75.862 186.96 76.6714 184.571 76.6712C182.794 76.6895 181.051 76.1772 179.567 75.1998C178.07 74.2189 176.69 72.576 175.427 70.2708ZM197.793 45.6364H200.82V58.3344H216.244V45.6364H219.272V75.9098H216.244V61.2979H200.82V75.9098H197.793V45.6364Z" fill="white"/>
</svg>
