<svg width="240" height="120" viewBox="0 0 240 120" fill="none" xmlns="http://www.w3.org/2000/svg">
<title>Innovion</title>
<path d="M23.9073 29.1979C23.6635 29.486 23.6192 29.903 23.8449 30.2274L27.9952 36.2453C28.1604 36.4891 28.4284 36.6181 28.7024 36.6181C28.797 36.6181 28.8857 36.5637 28.9784 36.5314L29.3834 37.1197C29.2444 37.3232 29.2363 37.5952 29.3834 37.8088L36.7169 48.4204C36.8378 48.5916 37.0292 48.6843 37.2226 48.6843C37.2669 48.6843 37.3052 48.654 37.3515 48.6439L40.2306 52.8084C40.2729 52.8708 40.3414 52.9051 40.4099 52.9051C40.4542 52.9051 40.4985 52.891 40.5368 52.8648C40.6376 52.7963 40.6618 52.6593 40.5932 52.5585L37.7263 48.4143C37.8653 48.2108 37.8754 47.9368 37.7263 47.7212L30.3927 37.1117C30.2436 36.8982 29.9837 36.8094 29.744 36.8679L29.3511 36.2957C29.5889 36.0076 29.6311 35.5946 29.4075 35.2722L25.2572 29.2543C25.0335 28.9279 24.6266 28.8211 24.27 28.946L23.4742 27.7956C23.4057 27.6969 23.2687 27.6707 23.168 27.7392C23.0671 27.8097 23.041 27.9467 23.1095 28.0475L23.9073 29.1979Z" fill="white"/>
<path d="M18.0726 32.7821C17.8872 33.1085 17.9215 33.5256 18.1975 33.8036L23.329 38.9351C23.4962 39.1023 23.7198 39.1849 23.9374 39.1849C24.0845 39.1849 24.2276 39.1325 24.3605 39.056L24.83 39.5255C24.7313 39.749 24.7696 40.021 24.9549 40.2044L34.3536 49.5849C34.4724 49.7038 34.6296 49.7623 34.7867 49.7623C34.8713 49.7623 34.954 49.7421 35.0326 49.7058L39.1204 53.7856C39.1647 53.8279 39.2191 53.8501 39.2755 53.8501C39.334 53.8501 39.3903 53.8279 39.4327 53.7856C39.5193 53.699 39.5193 53.56 39.4327 53.4734L35.3448 49.3955C35.4436 49.1699 35.4053 48.8999 35.2199 48.7166L25.8212 39.336C25.6379 39.1527 25.3659 39.1145 25.1403 39.2131L24.6688 38.7437C24.8562 38.4173 24.8239 37.9982 24.5459 37.7202L19.4144 32.5888C19.1323 32.3067 18.7073 32.2765 18.3808 32.4679L18.127 32.214C18.0404 32.1293 17.9013 32.1293 17.8147 32.214C17.7281 32.3027 17.7281 32.4417 17.8167 32.5283L18.0726 32.7821Z" fill="white"/>
<path d="M30.4127 27.0441C30.1206 27.2839 29.9997 27.6848 30.1609 28.0475L33.046 34.553C33.187 34.8734 33.5013 35.0627 33.8297 35.0627C33.8741 35.0627 33.9143 35.0426 33.9566 35.0365L34.2346 35.6631C34.0634 35.8384 34.001 36.1043 34.1077 36.3421L39.201 47.828C39.3017 48.0557 39.5254 48.1927 39.7631 48.1927C39.7711 48.1927 39.7792 48.1867 39.7872 48.1867L41.5018 52.0489C41.538 52.1314 41.6187 52.1819 41.7032 52.1819C41.7335 52.1819 41.7657 52.1758 41.7939 52.1617C41.9047 52.1133 41.955 51.9824 41.9067 51.8716L40.1922 48.0093C40.3654 47.8341 40.4279 47.5681 40.3212 47.3304L35.2299 35.8444C35.1252 35.6067 34.8854 35.4717 34.6417 35.4838L34.3636 34.8572C34.6537 34.6195 34.7746 34.2186 34.6155 33.8559L31.7303 27.3504C31.5692 26.9897 31.1904 26.8084 30.8177 26.8648L29.6996 24.3464C29.6491 24.2336 29.5182 24.1852 29.4094 24.2316C29.2966 24.282 29.2483 24.4129 29.2946 24.5237L30.4127 27.0441Z" fill="white"/>
<path d="M43.9257 67.0162C43.8008 67.0002 43.694 67.0827 43.6758 67.2037L41.2663 84.222C41.0285 84.2785 40.8331 84.4698 40.7968 84.7277L39.7995 91.7349C39.7633 91.9928 39.8963 92.2345 40.1118 92.3555L40.0252 92.9659C39.6626 93.0183 39.3402 93.2882 39.2817 93.6751L38.8043 96.9893C38.7358 97.4607 39.0602 97.8959 39.5296 97.9624C39.5739 97.9685 39.6122 97.9725 39.6544 97.9725C40.0736 97.9725 40.4422 97.6622 40.5026 97.2371L40.9801 93.9209C41.0366 93.53 40.8129 93.1734 40.4644 93.0243L40.553 92.4078C40.7867 92.3494 40.9781 92.162 41.0145 91.9082L42.0117 84.8989C42.048 84.6431 41.917 84.4013 41.7035 84.2804L44.1151 67.2661C44.1312 67.1452 44.0465 67.0324 43.9257 67.0162Z" fill="white"/>
<path d="M46.0149 51.5653C46.0249 51.5674 46.037 51.5674 46.047 51.5674C46.1539 51.5674 46.2486 51.4888 46.2646 51.378L46.6394 48.7951C46.8772 48.7387 47.0706 48.5493 47.1068 48.2914L48.5916 38.0083C48.6299 37.7524 48.4969 37.5106 48.2834 37.3898L48.3781 36.739C48.7508 36.6927 49.0692 36.4126 49.1236 36.0218L50.0483 29.6391C50.1047 29.2463 49.8791 28.8897 49.5305 28.7406L50.5641 21.5843C50.5822 21.4634 50.4976 21.3506 50.3767 21.3344C50.2377 21.3163 50.143 21.4009 50.1249 21.5198L49.0913 28.6821C48.7247 28.7345 48.4063 29.0025 48.3499 29.3933L47.4251 35.7739C47.3687 36.1668 47.5924 36.5214 47.9389 36.6726L47.8442 37.3313C47.6125 37.3898 47.4151 37.5812 47.3808 37.835L45.8939 48.1181C45.8577 48.3741 45.9866 48.6138 46.2002 48.7346L45.8274 51.3156C45.8094 51.4364 45.8919 51.5492 46.0149 51.5653Z" fill="white"/>
<path d="M44.792 51.2712L44.653 48.2552C44.8766 48.1564 45.0297 47.9308 45.0156 47.6709L44.4998 36.5294C44.4898 36.2696 44.3185 36.054 44.0828 35.9774L44.0506 35.2804C44.4112 35.1635 44.6671 34.833 44.6509 34.4382L44.3367 27.711C44.3205 27.3121 44.0586 27.0079 43.6637 26.9273L43.3998 21.2115C43.3938 21.0907 43.2749 21.0101 43.1681 21C43.0472 21.006 42.9525 21.1088 42.9586 21.2317L43.2225 26.9475C42.8639 27.0643 42.604 27.3947 42.6241 27.7896L42.9344 34.5168C42.9525 34.9116 43.2406 35.2179 43.6093 35.3005L43.6416 35.9996C43.4159 36.1004 43.2628 36.328 43.2769 36.5859L43.7927 47.7273C43.8048 47.9872 43.9781 48.1967 44.2117 48.2753L44.3508 51.2913C44.3548 51.4102 44.4535 51.5009 44.5723 51.5009H44.5825C44.7033 51.4968 44.798 51.3941 44.792 51.2712Z" fill="white"/>
<path d="M82.2274 67.4958L60.9338 62.7169C60.9157 62.3401 60.6659 62.0036 60.277 61.917L58.2281 61.4577C57.8453 61.369 57.4745 61.5664 57.2952 61.9009L56.5155 61.7256C56.4793 61.4839 56.302 61.2763 56.0482 61.2199L53.0361 60.543C52.6976 60.4684 52.3773 60.676 52.3028 61.0064C52.2282 61.3367 52.4358 61.6632 52.7661 61.7397L55.7782 62.4146C55.8245 62.4248 55.8688 62.4308 55.9131 62.4308C56.1146 62.4308 56.2738 62.3099 56.3866 62.1507L57.1965 62.3321C57.2147 62.7088 57.4665 63.0452 57.8513 63.1319L59.9043 63.5913C59.9648 63.6054 60.0293 63.6134 60.0917 63.6134C60.41 63.6134 60.6941 63.43 60.8431 63.15L82.1307 67.9269C82.1469 67.931 82.1629 67.933 82.1791 67.933C82.2798 67.933 82.3704 67.8624 82.3927 67.7597C82.4228 67.6409 82.3483 67.524 82.2274 67.4958Z" fill="white"/>
<path d="M83.0878 60.7867L62.6283 59.862C62.5457 59.4932 62.2395 59.2051 61.8466 59.187L59.5055 59.0782C59.1025 59.058 58.7762 59.32 58.6614 59.6806L57.8554 59.6444C57.7768 59.4106 57.5653 59.2353 57.3054 59.2253L53.0886 59.0318C52.726 59.0017 52.464 59.2776 52.4499 59.6161C52.4338 59.9546 52.6957 60.2407 53.0342 60.2568L57.2491 60.4502H57.2752C57.525 60.4502 57.7406 60.3011 57.8353 60.0855L58.6412 60.1218C58.7258 60.4905 59.0321 60.7766 59.4249 60.7947L61.766 60.9035H61.8063C62.1851 60.9035 62.4974 60.6496 62.6102 60.3011L83.0677 61.2279H83.0778C83.1967 61.2279 83.2933 61.1352 83.2974 61.0184C83.3034 60.8955 83.2107 60.7927 83.0878 60.7867Z" fill="white"/>
<path d="M58.5467 64.9714C58.5991 64.5966 58.4178 64.2198 58.0531 64.0627L56.6609 63.4623C56.2983 63.3051 55.8974 63.4301 55.6617 63.7263L54.9444 63.416C54.9525 63.1702 54.8155 62.9324 54.5757 62.8317L52.5348 61.9493C52.2245 61.8123 51.8639 61.9553 51.7289 62.2676C51.5959 62.5799 51.739 62.9405 52.0492 63.0734L54.0922 63.9559C54.1708 63.9902 54.2514 64.0063 54.3339 64.0063C54.4951 64.0063 54.6341 63.9237 54.749 63.8109L55.4864 64.1312C55.434 64.5059 55.6173 64.8826 55.982 65.0398L57.3722 65.6402C57.485 65.6866 57.5978 65.7107 57.7126 65.7107C57.9685 65.7107 58.1881 65.5677 58.3513 65.3683L79.8887 74.6662C79.9149 74.6783 79.9471 74.6823 79.9753 74.6823C80.0619 74.6823 80.1425 74.6319 80.1767 74.5493C80.2271 74.4385 80.1748 74.3076 80.0639 74.2592L58.5467 64.9714Z" fill="white"/>
<path d="M64.0345 85.8962C63.8854 85.6826 63.6255 85.594 63.3877 85.6504L51.4909 68.4003C51.7347 68.1082 51.7729 67.6872 51.5412 67.3628L51.4868 67.2882C51.2631 66.9698 50.8844 66.8933 50.542 67.0203L50.1893 66.5125C50.3263 66.3091 50.3365 66.035 50.1893 65.8215L50.006 65.5556C49.8126 65.2755 49.4277 65.207 49.1538 65.4004C48.8757 65.5918 48.8053 65.9746 48.9966 66.2526L49.18 66.5186C49.3008 66.6898 49.4902 66.7825 49.6856 66.7825C49.728 66.7825 49.7683 66.7523 49.8105 66.7422L50.1813 67.2781C49.9355 67.5783 49.9093 68.0337 50.145 68.362C50.3122 68.5958 50.5762 68.7207 50.8441 68.7207C50.9428 68.7207 51.0416 68.6985 51.1383 68.6643L63.0231 85.9023C62.8862 86.1057 62.876 86.3777 63.0231 86.5933L66.2043 91.205C66.3232 91.3782 66.5126 91.4709 66.708 91.4709C66.8309 91.4709 66.9498 91.4347 67.0566 91.3622C67.3366 91.1707 67.4052 90.7879 67.2138 90.5099L64.0345 85.8962Z" fill="white"/>
<path d="M70.1513 83.5168C69.966 83.3355 69.698 83.2952 69.4764 83.392L53.7857 67.7758C53.9731 67.4474 53.9388 67.0283 53.6567 66.7483L53.2478 66.3413C52.9718 66.0633 52.5527 66.0331 52.2243 66.2204L51.7569 65.7551C51.8557 65.5274 51.8133 65.2553 51.626 65.0721L51.0558 64.52C50.814 64.2843 50.4272 64.2904 50.1894 64.5321C49.9538 64.7759 49.9597 65.1627 50.2035 65.3984L50.7717 65.9504C50.8886 66.0673 51.0457 66.1258 51.1988 66.1258C51.2834 66.1258 51.3681 66.1035 51.4466 66.0693L51.91 66.5327C51.7247 66.8611 51.7569 67.2802 52.0389 67.5582L52.448 67.9651C52.6152 68.1324 52.8328 68.215 53.0544 68.215C53.2015 68.215 53.3425 68.1626 53.4755 68.0881L69.1641 83.7021C69.0613 83.9278 69.0996 84.2018 69.285 84.3872L71.7913 86.8794C71.9122 87.0003 72.0673 87.0587 72.2245 87.0587C72.3816 87.0587 72.5407 86.9983 72.6596 86.8774C72.8974 86.6376 72.8974 86.2488 72.6576 86.0111L70.1513 83.5168Z" fill="white"/>
<path d="M33.7735 79.9689L41.2581 66.4038C41.3186 66.297 41.2803 66.162 41.1736 66.1036C41.0668 66.0431 40.9337 66.0835 40.8713 66.1903L33.3887 79.7554C33.1449 79.7211 32.893 79.834 32.7681 80.0616L28.5493 87.7075C28.4244 87.9351 28.4606 88.2051 28.6178 88.3945L28.3236 88.9284C27.955 88.8397 27.5641 88.9888 27.3707 89.3333L25.7448 92.2869C25.5151 92.702 25.6683 93.2238 26.0833 93.4534C26.2142 93.526 26.3532 93.5602 26.4963 93.5602C26.7985 93.5602 27.0927 93.3991 27.2498 93.115L28.8757 90.1614C29.0671 89.8168 28.9804 89.4039 28.7105 89.1419L29.0107 88.5979C29.0369 88.6 29.0611 88.6161 29.0873 88.6161C29.3008 88.6161 29.5124 88.5033 29.6231 88.2997L33.8419 80.656C33.9669 80.4282 33.9306 80.1562 33.7735 79.9689Z" fill="white"/>
<path d="M47.9551 49.5969L47.2781 51.6137C47.2398 51.7305 47.3023 51.8554 47.4171 51.8937C47.4414 51.9017 47.4655 51.9058 47.4897 51.9058C47.5804 51.9058 47.667 51.8473 47.6972 51.7547L48.3681 49.7581C48.624 49.7581 48.8637 49.5969 48.9483 49.339L52.057 40.0451C52.1417 39.7933 52.049 39.5293 51.8536 39.3741L52.0691 38.7295C52.0873 38.7315 52.1054 38.7396 52.1195 38.7396C52.4781 38.7396 52.8125 38.5139 52.9335 38.1533L54.8757 32.3912C55.0026 32.0144 54.8414 31.6236 54.5271 31.414L57.2813 23.2061C57.3196 23.0912 57.257 22.9663 57.1422 22.926C57.0234 22.8897 56.9004 22.9502 56.8622 23.067L54.1061 31.275C53.7313 31.2549 53.3727 31.4705 53.2497 31.8432L51.3076 37.6053C51.1826 37.982 51.3398 38.3709 51.6541 38.5824L51.4345 39.2392C51.1908 39.2553 50.9751 39.4125 50.8946 39.6563L47.7859 48.9502C47.7073 49.1879 47.7818 49.4377 47.9551 49.5969Z" fill="white"/>
<path d="M37.559 82.3987L42.7046 66.986C42.7409 66.8692 42.6805 66.7443 42.5616 66.7059C42.4548 66.6677 42.3219 66.7302 42.2855 66.845L37.1399 82.2597C36.8941 82.2697 36.6725 82.4269 36.5899 82.6746L34.0896 90.1553C34.0071 90.4032 34.0937 90.663 34.283 90.8202L34.0937 91.3863C33.7169 91.3662 33.3563 91.5817 33.2314 91.9565L32.1273 95.2607C31.9762 95.71 32.22 96.1975 32.6693 96.3466C32.7599 96.3768 32.8506 96.3909 32.9413 96.3909C33.3019 96.3909 33.6343 96.1652 33.7552 95.8046L34.8573 92.5004C34.9842 92.1258 34.827 91.7369 34.5127 91.5273L34.7042 90.9532C34.948 90.937 35.1695 90.788 35.2522 90.5442L37.7524 83.0635C37.835 82.8157 37.7484 82.5558 37.559 82.3987Z" fill="white"/>
<path d="M30.6891 77.0436L40.0515 65.6302C40.132 65.5355 40.118 65.3965 40.0233 65.3199C39.9265 65.2413 39.7896 65.2534 39.713 65.3502L30.3486 76.7635C30.1149 76.687 29.8489 76.7515 29.6838 76.9549L23.6033 84.3711C23.4401 84.5706 23.428 84.8426 23.5449 85.0562L23.1419 85.5457C22.7995 85.3946 22.3885 85.4691 22.1366 85.7734L20.0493 88.324C19.7491 88.6907 19.8035 89.2307 20.1682 89.5308C20.3294 89.6638 20.5228 89.7263 20.7142 89.7263C20.962 89.7263 21.2078 89.6195 21.379 89.4119L23.4663 86.8634C23.7181 86.5551 23.706 86.132 23.4844 85.8258L23.9075 85.312C23.966 85.3301 24.0163 85.3745 24.0808 85.3745C24.2581 85.3745 24.4334 85.2959 24.5542 85.1488L30.6327 77.7306C30.7979 77.5311 30.812 77.2572 30.6891 77.0436Z" fill="white"/>
<path d="M19.6761 81.0992C19.8152 81.0992 19.9562 81.0529 20.069 80.9562L28.0816 74.2169C28.2811 74.0497 28.3435 73.7838 28.2629 73.5501L38.9389 64.5866C39.0316 64.508 39.0417 64.369 38.9651 64.2743C38.8845 64.1816 38.7455 64.1695 38.6548 64.2481L27.9788 73.2136C27.7633 73.0947 27.4872 73.1109 27.2918 73.2801L19.2813 80.0173C19.0839 80.1825 19.0194 80.4444 19.0939 80.6741L18.6144 81.0791C18.3041 80.8675 17.8871 80.8675 17.5869 81.1194L15.1168 83.1986C14.7542 83.5028 14.7079 84.0448 15.0141 84.4074C15.1833 84.6089 15.4271 84.7116 15.6709 84.7116C15.8643 84.7116 16.0618 84.6472 16.2229 84.5102L18.693 82.433C18.9972 82.1771 19.0637 81.7581 18.8985 81.4136L19.3799 81.0126C19.4706 81.065 19.5694 81.0992 19.6761 81.0992Z" fill="white"/>
<path d="M75.3897 79.4873C75.1781 79.3402 74.9001 79.3523 74.6967 79.4914L56.1652 66.7059C56.2881 66.3514 56.1813 65.9504 55.861 65.7268L54.9745 65.1082C54.6481 64.8826 54.227 64.925 53.939 65.1707L53.3506 64.7637C53.405 64.524 53.3184 64.2661 53.1029 64.119L51.9222 63.301C51.6482 63.1097 51.2614 63.1762 51.068 63.4562C50.8766 63.7342 50.9451 64.1171 51.2251 64.3084L52.4078 65.1284C52.5146 65.2009 52.6354 65.2351 52.7563 65.2351C52.8772 65.2351 52.99 65.1888 53.0927 65.1203L53.6891 65.5333C53.5642 65.888 53.669 66.2929 53.9933 66.5186L54.8758 67.1351C55.0289 67.2379 55.1982 67.2902 55.3674 67.2902C55.5669 67.2902 55.7522 67.1976 55.9093 67.0645L74.4468 79.856C74.3924 80.0938 74.481 80.3496 74.6946 80.4967L76.0606 81.4355C76.1674 81.5081 76.2863 81.5444 76.4072 81.5444C76.6025 81.5444 76.792 81.4517 76.9128 81.2785C77.1042 81.0004 77.0337 80.6196 76.7556 80.4262L75.3897 79.4873Z" fill="white"/>
<path d="M54.1625 94.1646C54.0719 93.7838 53.7354 93.538 53.3667 93.5199L53.2176 92.8893C53.413 92.7483 53.5137 92.5004 53.4554 92.2506L52.2142 87.0244C52.1538 86.7726 51.9443 86.5933 51.7005 86.561L47.3447 68.3661C47.5482 68.2251 47.657 67.9732 47.5965 67.7214L47.4072 66.9437C47.3286 66.6153 46.9982 66.4078 46.6677 66.4904C46.3394 66.571 46.1379 66.9014 46.2164 67.2298L46.4018 68.0075C46.4643 68.2552 46.6718 68.4084 46.9095 68.4466L51.2714 86.6638C51.07 86.8028 50.9611 87.0526 51.0195 87.3065L52.2627 92.5347C52.3231 92.7885 52.5386 92.9477 52.7844 92.98L52.9376 93.6166C52.5991 93.7939 52.3996 94.1707 52.4923 94.5615L53.0504 96.9126C53.1431 97.3076 53.4957 97.5735 53.8844 97.5735C53.9509 97.5735 54.0174 97.5655 54.084 97.5493C54.5433 97.4405 54.8294 96.9771 54.7206 96.5157L54.1625 94.1646Z" fill="white"/>
<path d="M36.8117 27.3464L38.3166 34.0615C38.4033 34.4483 38.7417 34.7122 39.1205 34.7263L39.2696 35.3912C39.0661 35.5282 38.9553 35.7781 39.0137 36.0299L41.6027 47.5803C41.657 47.8301 41.8666 47.9852 42.1043 48.0276L42.892 51.5372C42.9122 51.64 43.0049 51.7084 43.1057 51.7084C43.1217 51.7084 43.1379 51.7065 43.154 51.7044C43.2729 51.6762 43.3474 51.5594 43.3192 51.4384L42.5395 47.9551C42.743 47.818 42.8558 47.5682 42.7974 47.3143L40.2105 35.7619C40.152 35.5061 39.9465 35.3247 39.6988 35.2925L39.5477 34.6196C39.8801 34.4423 40.0775 34.0715 39.9929 33.6847L38.4858 26.9697C38.3992 26.5849 38.0568 26.331 37.686 26.3149L36.727 22.0497C36.7008 21.9309 36.5921 21.8563 36.4631 21.8825C36.3463 21.9087 36.2697 22.0276 36.2978 22.1464L37.2549 26.4136C36.9225 26.5909 36.725 26.9616 36.8117 27.3464Z" fill="white"/>
<path d="M60.9036 92.9699C60.7403 92.6072 60.3596 92.4259 59.9868 92.4864L59.7189 91.88C59.8921 91.7066 59.9526 91.4387 59.8478 91.201L57.9721 86.9782C57.8653 86.7404 57.6256 86.6055 57.3818 86.6196L49.2887 68.4004C49.466 68.2252 49.5284 67.9552 49.4216 67.7154L48.8172 66.3716C48.6802 66.0613 48.3156 65.9263 48.0073 66.0633C47.6971 66.2023 47.56 66.565 47.6991 66.8733L48.3034 68.217C48.4042 68.4447 48.6278 68.5797 48.8615 68.5797C48.8696 68.5797 48.8756 68.5756 48.8837 68.5756L56.9788 86.7989C56.8056 86.9721 56.7471 87.24 56.8499 87.4778L58.7276 91.6986C58.8284 91.9263 59.052 92.0633 59.2857 92.0633C59.2958 92.0633 59.3059 92.0572 59.3159 92.0572L59.5859 92.6657C59.2938 92.9034 59.1749 93.3064 59.3341 93.667L59.7672 94.6462C59.9103 94.9645 60.2226 95.1559 60.553 95.1559C60.6698 95.1559 60.7867 95.1317 60.9015 95.0814C61.3347 94.89 61.5301 94.3822 61.3387 93.9491L60.9036 92.9699Z" fill="white"/>
<path d="M46.9054 93.677L46.8712 93.0182C47.0988 92.9195 47.254 92.6918 47.2398 92.4279L46.9297 86.285C46.9175 86.0231 46.7382 85.8256 46.5005 85.7451L45.6039 68.2008C45.8275 68.1001 45.9806 67.8725 45.9666 67.6125L45.9484 67.2881C45.9323 66.9518 45.6724 66.6999 45.3057 66.708C44.9693 66.7261 44.7074 67.0142 44.7255 67.3526L44.7437 67.675C44.7578 67.9349 44.931 68.1424 45.1627 68.221L46.0592 85.7632C45.8396 85.8659 45.6906 86.0916 45.7047 86.3475L46.017 92.4923C46.0291 92.7482 46.2003 92.9557 46.4299 93.0343L46.4622 93.6972C46.1076 93.818 45.8557 94.1484 45.8759 94.5413L46.033 97.6642C46.0572 98.1235 46.438 98.4781 46.8893 98.4781H46.9356C47.4091 98.4539 47.7738 98.051 47.7496 97.5775L47.5925 94.4527C47.5724 94.0598 47.254 93.7636 46.9054 93.677Z" fill="white"/>
<path d="M54.8496 41.0526L54.5112 41.659C54.2694 41.6268 54.0196 41.7375 53.8906 41.9653L49.4421 49.9415C49.3152 50.1692 49.3514 50.4412 49.5106 50.6285L48.6503 52.1698C48.5919 52.2766 48.6282 52.4115 48.7349 52.47C48.7692 52.4901 48.8075 52.4982 48.8437 52.4982C48.9203 52.4982 48.9969 52.4579 49.0351 52.3853L49.9015 50.832C49.9277 50.8361 49.9519 50.8542 49.9781 50.8542C50.1916 50.8542 50.4012 50.7413 50.514 50.5379L54.9625 42.5616C55.0894 42.3339 55.0532 42.064 54.896 41.8746L55.2385 41.2621C55.309 41.2782 55.3775 41.3145 55.448 41.3145C55.7482 41.3145 56.0424 41.1553 56.1995 40.8733L58.9818 35.8566C59.1732 35.5121 59.0886 35.099 58.8227 34.8372L63.7084 26.0711C63.7688 25.9643 63.7285 25.8313 63.6237 25.7709C63.515 25.7125 63.382 25.7508 63.3236 25.8575L58.4358 34.6215C58.0671 34.5289 57.6723 34.676 57.4809 35.0225L54.6985 40.0411C54.5071 40.3817 54.5877 40.7886 54.8496 41.0526Z" fill="white"/>
<path d="M60.6377 38.9895L57.3578 42.9564C57.1059 43.2627 57.114 43.6817 57.3295 43.9899L56.8883 44.5259C56.6526 44.4473 56.3886 44.5118 56.2214 44.7133L50.7777 51.2913C50.6145 51.4907 50.6004 51.7628 50.7173 51.9764L49.8932 52.9716C49.8146 53.0643 49.8287 53.2053 49.9234 53.2819C49.9637 53.3161 50.014 53.3322 50.0625 53.3322C50.1269 53.3322 50.1894 53.306 50.2337 53.2537L51.0798 52.2322C51.1383 52.2523 51.1927 52.2947 51.2531 52.2947C51.4284 52.2947 51.6037 52.2201 51.7246 52.073L57.1664 45.495C57.3316 45.2935 57.3457 45.0215 57.2288 44.808L57.668 44.2761C57.7809 44.3264 57.8997 44.3627 58.0206 44.3627C58.2664 44.3627 58.5122 44.256 58.6814 44.0505L61.9593 40.0815C62.2112 39.7792 62.2051 39.3642 61.9936 39.056L69.4622 30.038C69.5387 29.9434 69.5246 29.8043 69.432 29.7278C69.3352 29.6492 69.1983 29.6613 69.1197 29.756L61.6531 38.7719C61.3086 38.6127 60.8896 38.6833 60.6377 38.9895Z" fill="white"/>
<path d="M63.8955 47.554L60.2892 49.615C59.9447 49.8125 59.8056 50.2074 59.9003 50.5741L59.2576 50.9407C59.0682 50.7856 58.7962 50.7534 58.5706 50.8824L52.5526 54.3235C52.327 54.4524 52.2161 54.7042 52.2525 54.946L51.8394 55.1838C51.7347 55.2442 51.6944 55.3791 51.7588 55.4859C51.7971 55.5565 51.8716 55.5968 51.9482 55.5968C51.9865 55.5968 52.0227 55.5867 52.0591 55.5665L52.4861 55.3228C52.5949 55.4073 52.7178 55.4698 52.8568 55.4698C52.9596 55.4698 53.0643 55.4436 53.1591 55.3893L59.177 51.9461C59.4047 51.8172 59.5135 51.5673 59.4792 51.3235L60.132 50.9488C60.2952 51.108 60.4947 51.2187 60.7182 51.2187C60.8613 51.2187 61.0064 51.1825 61.1414 51.1059L64.7478 49.0449C65.0923 48.8474 65.2333 48.4526 65.1365 48.0859L78.1899 40.6233C78.2927 40.5629 78.331 40.4279 78.2705 40.3212C78.2101 40.2144 78.0751 40.1781 77.9684 40.2405L64.9189 47.7031C64.653 47.4372 64.242 47.3586 63.8955 47.554Z" fill="white"/>
<path d="M15.4495 76.145L16.0055 75.8328C16.1164 75.9254 16.2453 75.9899 16.3883 75.9899C16.4911 75.9899 16.5938 75.9657 16.6885 75.9113L26.4337 70.401C26.6614 70.2741 26.7722 70.0223 26.738 69.7805L38.0668 63.3898C38.1716 63.3314 38.2098 63.1964 38.1514 63.0916C38.0869 62.9829 37.954 62.9486 37.8492 63.007L26.5184 69.3957C26.327 69.2406 26.057 69.2063 25.8313 69.3352L16.0861 74.8436C15.8645 74.9705 15.7497 75.2143 15.7799 75.4519L15.2299 75.7643C14.966 75.5043 14.565 75.4278 14.2225 75.6151L11.2448 77.2652C10.8297 77.4949 10.6806 78.0167 10.9103 78.4317C11.0675 78.7158 11.3616 78.875 11.6618 78.875C11.8029 78.875 11.9459 78.8407 12.0768 78.7662L15.0546 77.1162C15.4072 76.9207 15.5523 76.5177 15.4495 76.145Z" fill="white"/>
<path d="M62.7853 43.3331L59.2675 46.2646C58.9633 46.5184 58.8908 46.9314 59.0499 47.2759L58.4757 47.7534C58.2622 47.6326 57.9882 47.6486 57.7887 47.8159L51.7849 52.8185C51.5834 52.9857 51.5209 53.2516 51.5974 53.4853L50.9709 54.0071C50.8782 54.0857 50.8642 54.2247 50.9427 54.3194C50.987 54.3718 51.0495 54.398 51.1119 54.398C51.1623 54.398 51.2126 54.3798 51.2529 54.3476L51.8856 53.8218C51.9783 53.8701 52.0749 53.9044 52.1757 53.9044C52.3167 53.9044 52.4538 53.8581 52.5706 53.7613L58.5724 48.7568C58.7719 48.5916 58.8364 48.3257 58.7598 48.094L59.336 47.6124C59.4811 47.7131 59.6423 47.7816 59.8156 47.7816C60.0109 47.7816 60.2043 47.7172 60.3656 47.5842L63.8833 44.6527C64.1875 44.3989 64.258 43.9839 64.1008 43.6414L74.386 35.0707C74.4787 34.9922 74.4928 34.8531 74.4122 34.7605C74.3356 34.6678 74.1986 34.6537 74.102 34.7303L63.8188 43.3009C63.5085 43.0854 63.0874 43.0813 62.7853 43.3331Z" fill="white"/>
<path d="M63.1037 55.905L60.3557 56.2757C59.9588 56.3281 59.6808 56.6445 59.6324 57.0212L58.8003 57.134C58.6834 56.9205 58.4437 56.7895 58.1838 56.8238L53.1027 57.5169C52.7683 57.5632 52.5325 57.8734 52.5788 58.2079C52.6211 58.5141 52.8851 58.7378 53.1853 58.7378C53.2135 58.7378 53.2417 58.7358 53.2699 58.7317L58.351 58.0386C58.6089 58.0044 58.8023 57.811 58.8607 57.5732L59.6908 57.4584C59.8237 57.7707 60.124 57.9842 60.4664 57.9842C60.5068 57.9842 60.545 57.9803 60.5833 57.9762L63.3314 57.6055C63.7263 57.5531 64.0043 57.2388 64.0547 56.864L82.7493 54.3114C82.8722 54.2952 82.9569 54.1845 82.9387 54.0635C82.9205 53.9427 82.8259 53.8541 82.6888 53.8742L63.9923 56.4269C63.8412 56.0784 63.4805 55.8527 63.1037 55.905Z" fill="white"/>
<path d="M12.4518 64.1695L13.0743 64.0788C13.1791 64.2682 13.3826 64.393 13.6062 64.393C13.6364 64.393 13.6686 64.391 13.6948 64.385L25.8758 62.6322C26.1337 62.5939 26.3291 62.4025 26.3836 62.1628L37.0495 60.6275C37.1704 60.6094 37.255 60.4986 37.2369 60.3777C37.2187 60.2568 37.112 60.1762 36.9851 60.1903L26.3191 61.7256C26.1982 61.512 25.9544 61.3791 25.7006 61.4173L13.5216 63.1721C13.2617 63.2084 13.0703 63.4038 13.0139 63.6416L12.3893 63.7323C12.2382 63.3857 11.8755 63.1621 11.4907 63.2165L7.06035 63.8572C6.59294 63.9237 6.26857 64.3609 6.33506 64.8302C6.3955 65.2574 6.76419 65.5656 7.18326 65.5656C7.22355 65.5656 7.26787 65.5616 7.30817 65.5556L11.7385 64.9149C12.1294 64.8585 12.4054 64.5441 12.4518 64.1695Z" fill="white"/>
<path d="M13.3119 70.2721L13.9345 70.0606C14.0493 70.1935 14.1984 70.2902 14.3757 70.2902C14.4422 70.2902 14.5086 70.2802 14.5731 70.2579L25.7206 66.4602C25.9664 66.3756 26.1215 66.1499 26.1316 65.9062L37.4282 62.0561C37.543 62.0178 37.6054 61.8909 37.5672 61.776C37.5268 61.6612 37.402 61.5967 37.2851 61.639L25.9905 65.4871C25.8334 65.2997 25.5755 65.2151 25.3237 65.2997L14.1782 69.0975C13.9324 69.1801 13.7753 69.4058 13.7672 69.6516L13.1709 69.8551C12.9573 69.5407 12.5665 69.3856 12.1877 69.5145L8.52896 70.7838C8.07967 70.9389 7.84395 71.4285 7.99908 71.8758C8.12198 72.2304 8.45643 72.454 8.81102 72.454C8.9037 72.454 8.99839 72.4379 9.09106 72.4057L12.7538 71.1364C13.1245 71.0075 13.3361 70.6468 13.3119 70.2721Z" fill="white"/>
<path d="M63.8754 51.9078L60.6559 53.0199C60.2832 53.1488 60.0697 53.5095 60.0958 53.8863L59.3463 54.1461C59.1892 53.9588 58.9293 53.8782 58.6815 53.9608L53.006 55.9211C52.7602 56.0058 52.6071 56.2314 52.597 56.4772L52.4762 56.5195C52.3593 56.5578 52.2989 56.6847 52.3391 56.7995C52.3693 56.8902 52.456 56.9466 52.5466 56.9466C52.5708 56.9466 52.595 56.9446 52.6192 56.9365L52.7662 56.8862C52.8831 57.0171 53.0302 57.1119 53.2055 57.1119C53.272 57.1119 53.3404 57.1017 53.4069 57.0775L59.0804 55.1193C59.3262 55.0346 59.4793 54.809 59.4894 54.5632L60.2308 54.3073C60.392 54.545 60.6539 54.6901 60.938 54.6901C61.0307 54.6901 61.1253 54.674 61.218 54.6418L64.4335 53.5316C64.8083 53.4007 65.0198 53.0401 64.9976 52.6633L81.0771 47.1107C81.194 47.0724 81.2544 46.9455 81.2121 46.8307C81.1739 46.7159 81.0449 46.6534 80.934 46.6937L64.8505 52.2442C64.641 51.934 64.2522 51.7809 63.8754 51.9078Z" fill="white"/>
<path d="M7.6244 51.5109L13.3563 52.8366C13.4208 52.8507 13.4852 52.8589 13.5497 52.8589C13.868 52.8589 14.1521 52.6755 14.2992 52.3955L14.9016 52.5345C14.9358 52.7803 15.1131 52.9918 15.367 53.0523L28.108 55.9998C28.1544 56.0098 28.2007 56.0139 28.2451 56.0139C28.4445 56.0139 28.6037 55.897 28.7186 55.7378L37.0978 57.68C37.1159 57.6841 37.132 57.6861 37.1482 57.6861C37.2489 57.6861 37.3396 57.6176 37.3637 57.5148C37.3899 57.3959 37.3173 57.2771 37.1985 57.2509L28.8495 55.3147C28.8172 55.073 28.6379 54.8635 28.3861 54.805L15.643 51.8575C15.3911 51.797 15.1433 51.9059 15.0043 52.1053L14.3919 51.9643C14.3757 51.5895 14.1279 51.2531 13.7411 51.1625L8.00922 49.8367C7.56396 49.736 7.08647 50.0161 6.98171 50.4794C6.87493 50.9428 7.16303 51.4042 7.6244 51.5109Z" fill="white"/>
<path d="M11.9602 58.6975H11.9924C12.3732 58.6975 12.6855 58.4456 12.7963 58.0972L13.4531 58.1253C13.5337 58.359 13.7452 58.5303 14.0071 58.5424L26.7523 59.0985C26.7603 59.1004 26.7704 59.1004 26.7785 59.1004C27.0283 59.1004 27.2419 58.9493 27.3385 58.7317L36.9367 59.1528H36.9467C37.0656 59.1528 37.1623 59.0602 37.1684 58.9413C37.1744 58.8183 37.0798 58.7156 36.9568 58.7096L27.3567 58.2905C27.2781 58.0589 27.0646 57.8856 26.8047 57.8735L14.0575 57.3174C13.8117 57.2872 13.578 57.4524 13.4753 57.6861L12.8144 57.6559C12.7318 57.2852 12.4216 56.9991 12.0247 56.9829L6.89115 56.7856C6.43784 56.7674 6.01877 57.1361 6.00064 57.6095C5.98251 58.083 6.3512 58.482 6.82466 58.5L11.9602 58.6975Z" fill="white"/>
<path d="M13.4752 38.8464L19.1587 42.7469C19.3098 42.8476 19.477 42.898 19.6463 42.898C19.8457 42.898 20.027 42.8053 20.1842 42.6723L20.71 43.035C20.6536 43.2747 20.7403 43.5347 20.9559 43.6817L31.9119 51.1966C32.0187 51.2692 32.1395 51.3034 32.2605 51.3034C32.3833 51.3034 32.4961 51.2551 32.6009 51.1825L38.1596 54.9924C38.1979 55.0186 38.2421 55.0307 38.2845 55.0307C38.357 55.0307 38.4235 54.9984 38.4658 54.9359C38.5343 54.8352 38.5101 54.6982 38.4094 54.6277L32.8568 50.8218C32.9092 50.5862 32.8205 50.3303 32.607 50.1852L21.6489 42.6703C21.4373 42.5252 21.1634 42.5333 20.9618 42.6703L20.4421 42.3137C20.567 41.9571 20.4582 41.5542 20.1318 41.3305L14.4443 37.4321C14.1018 37.1943 13.6565 37.2587 13.3704 37.5388C13.308 37.5449 13.2515 37.5711 13.2113 37.6275C13.175 37.6818 13.171 37.7483 13.1851 37.8068C13.0279 38.1755 13.1307 38.6106 13.4752 38.8464Z" fill="white"/>
<path d="M9.78616 44.7758L15.792 47.4191C15.9049 47.4695 16.0217 47.4937 16.1366 47.4937C16.3864 47.4937 16.604 47.3566 16.7671 47.1613L17.3615 47.4211C17.3535 47.6669 17.4884 47.9027 17.7242 48.0054L29.8205 53.3141C29.9011 53.3505 29.9857 53.3665 30.0684 53.3665C30.2276 53.3665 30.3666 53.286 30.4794 53.1751L37.5268 56.2638C37.5551 56.2758 37.5873 56.2818 37.6155 56.2818C37.6981 56.2818 37.7827 56.2335 37.817 56.151C37.8674 56.0381 37.815 55.9091 37.7022 55.8587L30.6788 52.7783C30.6889 52.5345 30.5539 52.2968 30.3142 52.192L18.2198 46.8832C17.98 46.7784 17.7141 46.8409 17.5388 47.0162L16.9687 46.7684C17.0291 46.3916 16.8477 46.0088 16.4831 45.8477L10.4772 43.2044C10.0481 43.0129 9.53835 43.2083 9.34494 43.6435C9.15555 44.0787 9.35098 44.5844 9.78616 44.7758Z" fill="white"/>
<path d="M98.3774 52.0106H96.3286V66.3171H98.3774V52.0106Z" fill="white"/>
<path d="M117.888 52.0106H119.834V66.3171H118.071L108.508 55.2986V66.3171H106.583V52.0106H108.242L117.888 63.1218V52.0106Z" fill="white"/>
<path d="M139.232 52.0106H141.179V66.3171H139.415L129.852 55.2986V66.3171H127.928V52.0106H129.585L139.232 63.1218V52.0106Z" fill="white"/>
<path d="M156.309 53.7514C154.672 53.7514 153.329 54.2632 152.273 55.2866C151.219 56.3121 150.693 57.6177 150.693 59.2093C150.693 60.7526 151.222 62.036 152.279 63.0594C153.335 64.0829 154.661 64.5946 156.248 64.5946C157.844 64.5946 159.175 64.0748 160.242 63.0292C161.309 61.9836 161.843 60.6841 161.843 59.1267C161.843 57.6116 161.309 56.3363 160.242 55.3028C159.175 54.2692 157.864 53.7514 156.309 53.7514ZM156.229 51.8052C158.438 51.8052 160.278 52.5043 161.749 53.9046C163.219 55.3048 163.952 57.0596 163.952 59.167C163.952 61.2784 163.211 63.0232 161.727 64.4052C160.244 65.7893 158.372 66.4804 156.113 66.4804C153.96 66.4804 152.163 65.7893 150.726 64.4052C149.291 63.0232 148.572 61.2926 148.572 59.2093C148.572 57.0717 149.298 55.3048 150.742 53.9046C152.189 52.5043 154.016 51.8052 156.229 51.8052Z" fill="white"/>
<path d="M179.664 52.0106H181.704L175.656 66.3776H175.19L169.025 52.0106H171.087L175.391 62.056L179.664 52.0106Z" fill="white"/>
<path d="M190.309 52.0106H188.26V66.3171H190.309V52.0106Z" fill="white"/>
<path d="M205.553 53.7514C203.916 53.7514 202.572 54.2632 201.517 55.2866C200.466 56.3121 199.937 57.6177 199.937 59.2093C199.937 60.7526 200.466 62.036 201.523 63.0594C202.579 64.0829 203.904 64.5946 205.492 64.5946C207.087 64.5946 208.419 64.0748 209.487 63.0292C210.553 61.9836 211.089 60.6841 211.089 59.1267C211.089 57.6116 210.553 56.3363 209.487 55.3028C208.419 54.2692 207.108 53.7514 205.553 53.7514ZM205.472 51.8052C207.682 51.8052 209.523 52.5043 210.993 53.9046C212.463 55.3048 213.198 57.0596 213.198 59.167C213.198 61.2784 212.457 63.0232 210.97 64.4052C209.487 65.7893 207.616 66.4804 205.359 66.4804C203.203 66.4804 201.407 65.7893 199.969 64.4052C198.535 63.0232 197.818 61.2926 197.818 59.2093C197.818 57.0717 198.542 55.3048 199.986 53.9046C201.432 52.5043 203.26 51.8052 205.472 51.8052Z" fill="white"/>
<path d="M232.054 52.0106H234V66.3171H232.239L222.674 55.2986V66.3171H220.75V52.0106H222.408L232.054 63.1218V52.0106Z" fill="white"/>
</svg>
